<?xml version="1.0" encoding="utf-8"?>
<!-- Generator: Adobe Illustrator 25.0.0, SVG Export Plug-In . SVG Version: 6.00 Build 0)  -->
<svg version="1.1" id="Layer_1" xmlns="http://www.w3.org/2000/svg" xmlns:xlink="http://www.w3.org/1999/xlink" x="0px" y="0px"
	 viewBox="0 0 2000 2000" style="enable-background:new 0 0 2000 2000;" xml:space="preserve">
<style type="text/css">
	.st0{fill:#488EFE;}
	.st1{fill:none;stroke:#488EFE;stroke-width:3;stroke-miterlimit:10;}
	.st2{fill:#75F9A3;}
	.st3{fill:#22B8E0;}
	.st4{fill:#1DACD3;}
	.st5{fill:#18D65A;}
	.st6{fill:#13C952;}
	.st7{fill:#FFFFFF;}
</style>
<rect width="2000" height="2000"/>
<g>
	<g>
		<g>
			<path class="st0" d="M724.38,979.89l-22.06,11.77c-2.9,1.55-6.09,2.32-9.3,2.32c-3.19,0-6.4-0.77-9.3-2.32L570.2,931.07
				c-4.97-2.64-10.54-3.95-16.12-3.95c-5.56,0-11.15,1.31-16.12,3.96l-113.52,60.57c-2.9,1.55-6.11,2.32-9.3,2.32
				c-3.21,0-6.4-0.77-9.3-2.32l-22.06-11.77c-11.64-6.21-18.85-18.25-18.85-31.43c0-13.19,7.22-25.22,18.85-31.43l135.58-72.33
				c10.65-5.68,22.67-8.69,34.71-8.69c12.06,0,24.08,3.01,34.71,8.69l135.58,72.33c11.64,6.21,18.85,18.25,18.85,31.43
				C743.23,961.64,736.01,973.67,724.38,979.89z"/>
		</g>
		<path class="st1" d="M521.38,1108.18l18.02,9.61c9.01,4.81,20.37,4.81,29.37,0l18.02-9.61c-10.2,4.8-21.42,7.31-32.71,7.31
			C542.81,1115.5,531.58,1112.98,521.38,1108.18z"/>
		<g>
			<path class="st2" d="M743.23,1051.55c0,13.19-7.22,25.22-18.85,31.43l-135.58,72.35c-10.63,5.68-22.65,8.67-34.71,8.67
				c-12.06,0-24.08-2.99-34.71-8.67l-135.58-72.35c-11.64-6.21-18.85-18.25-18.85-31.43c0-13.19,7.22-25.22,18.85-31.42l22.06-11.77
				c2.9-1.55,6.09-2.32,9.3-2.32c3.19,0,6.38,0.77,9.3,2.32l113.52,60.57c4.97,2.66,10.56,3.96,16.12,3.96
				c5.58,0,11.15-1.32,16.12-3.96l113.52-60.57c2.9-1.55,6.11-2.32,9.3-2.32c3.21,0,6.4,0.77,9.3,2.32l22.06,11.76
				C736.01,1026.33,743.23,1038.36,743.23,1051.55z"/>
			<path class="st0" d="M521.38,1108.18l-1.43,2.68l18.02,9.61c4.97,2.65,10.55,3.96,16.12,3.96c5.57,0,11.14-1.31,16.11-3.96
				l18.02-9.61l-2.72-5.43c-9.79,4.6-20.58,7.03-31.41,7.03c-10.83,0-21.62-2.42-31.41-7.03l-2.72,5.43L521.38,1108.18l-1.29,2.75
				c10.6,4.99,22.27,7.6,34,7.6c11.73,0,23.39-2.62,34-7.6l-1.29-2.75l-1.43-2.68l-18.02,9.61c-4.03,2.15-8.64,3.25-13.25,3.25
				c-4.62,0-9.22-1.09-13.26-3.25l-18.02-9.61L521.38,1108.18l-1.29,2.75L521.38,1108.18z"/>
		</g>
		<path class="st0" d="M693.02,1025.78l-113.52,60.57c-7.94,4.24-16.68,6.36-25.41,6.36c-8.74,0-17.47-2.12-25.41-6.36
			l-113.52-60.57l-22.06,11.77c-11.2,5.98-11.2,22.03,0,28.01l135.58,72.34c7.94,4.24,16.68,6.36,25.41,6.36
			c8.74,0,17.47-2.12,25.41-6.36l135.58-72.34c11.2-5.98,11.2-22.04,0-28.01L693.02,1025.78L693.02,1025.78z"/>
		<path class="st3" d="M415.15,974.23L393.09,986c-11.2,5.98-11.2,22.03,0,28.01l22.06,11.77l48.3-25.77L415.15,974.23
			L415.15,974.23z M693.02,974.23l-48.3,25.77l48.3,25.77l22.05-11.77c11.2-5.98,11.2-22.04,0-28.01L693.02,974.23L693.02,974.23z"
			/>
		<path class="st4" d="M644.72,1000l-65.22,34.8c-7.94,4.24-16.68,6.36-25.41,6.36c-8.74,0-17.47-2.12-25.41-6.36l-65.22-34.8
			l-48.3,25.77l113.52,60.57c7.94,4.24,16.68,6.36,25.41,6.36c8.74,0,17.47-2.12,25.41-6.36l113.52-60.57L644.72,1000L644.72,1000z"
			/>
		<path class="st2" d="M554.09,855.75c-8.74,0-17.47,2.12-25.41,6.36l-135.58,72.34c-11.2,5.98-11.2,22.04,0,28.01l22.06,11.77
			l113.52-60.57c7.94-4.24,16.68-6.36,25.41-6.36c8.74,0,17.47,2.12,25.41,6.36l113.52,60.57l22.06-11.77
			c11.2-5.98,11.2-22.03,0-28.01L579.5,862.11C571.56,857.87,562.82,855.75,554.09,855.75L554.09,855.75z"/>
		<path class="st5" d="M554.09,907.3c-8.74,0-17.47,2.12-25.41,6.36l-113.52,60.57l48.3,25.77l65.22-34.8
			c7.94-4.24,16.68-6.36,25.41-6.36c8.74,0,17.47,2.12,25.41,6.36l65.22,34.8l48.3-25.77L579.5,913.66
			C571.56,909.42,562.82,907.3,554.09,907.3L554.09,907.3z"/>
		<path class="st6" d="M554.09,958.85c-8.74,0-17.47,2.12-25.41,6.36l-65.22,34.8l65.22,34.8c7.94,4.24,16.68,6.36,25.41,6.36
			c8.74,0,17.47-2.12,25.41-6.36l65.22-34.8l-65.22-34.8C571.56,960.97,562.82,958.85,554.09,958.85L554.09,958.85z"/>
	</g>
	<g>
		<g>
			<path class="st7" d="M809.7,1062.52V924.89h58.2c12.98,0,23.95,2.72,32.93,8.16c8.98,5.44,15.63,12.55,19.96,21.33
				c3.15,6.68,4.72,13.66,4.72,20.94s-1.57,14.25-4.72,20.94c-4.33,8.78-10.98,15.9-19.96,21.33c-8.98,5.44-19.96,8.16-32.93,8.16
				h-32.44v36.77H809.7z M867.89,950.65h-32.44V1000h32.44c7.6,0,13.93-1.38,18.97-4.13c5.04-2.75,8.62-6.36,10.72-10.81
				c1.44-3.01,2.16-6.26,2.16-9.73c0-3.47-0.72-6.72-2.16-9.73c-2.1-4.45-5.67-8.06-10.72-10.81
				C881.82,952.03,875.49,950.65,867.89,950.65z"/>
			<path class="st7" d="M935.33,1062.13c0-14.02,0-33.23,0-57.61h0.2c0.79-13.89,4.19-24.84,10.22-32.83
				c7.86-10.22,19.4-15.34,34.6-15.34h31.26v25.76h-31.26c-6.68,0-11.4,1.77-14.16,5.31c-3.28,4.46-4.98,12.06-5.11,22.81v51.91
				H935.33z"/>
			<path class="st7" d="M1071.38,1062.13h-8.45c-10.49,0-19.3-2.98-26.44-8.95c-7.15-5.96-12.29-13.86-15.43-23.69
				c-2.1-6.42-3.15-13.17-3.15-20.25c0-7.08,1.05-13.89,3.15-20.45c3.15-9.7,8.29-17.53,15.43-23.5c7.14-5.96,15.96-8.95,26.44-8.95
				h16.91c10.49,0,19.3,2.98,26.44,8.95c7.14,5.97,12.29,13.8,15.43,23.5c2.1,6.56,3.15,13.37,3.15,20.45
				c0,7.08-1.05,13.83-3.15,20.25c-3.15,9.83-8.29,17.73-15.43,23.69c-7.14,5.97-15.96,8.95-26.44,8.95H1071.38z M1045.63,1021.63
				c1.44,4.46,3.64,8.03,6.59,10.72c2.95,2.69,6.52,4.03,10.72,4.03h16.91c4.19,0,7.8-1.34,10.81-4.03
				c3.01-2.69,5.24-6.26,6.69-10.72c1.18-3.8,1.77-7.93,1.77-12.39c0-4.45-0.59-8.58-1.77-12.39c-1.44-4.45-3.67-8.03-6.69-10.72
				c-3.02-2.68-6.62-4.03-10.81-4.03h-16.91c-4.2,0-7.77,1.35-10.72,4.03c-2.95,2.69-5.15,6.26-6.59,10.72
				c-1.31,3.8-1.97,7.93-1.97,12.39C1043.66,1013.7,1044.32,1017.83,1045.63,1021.63z"/>
			<path class="st7" d="M1138.82,969.13v-12.78h25.76v96.14c0,18.48-4.13,32.83-12.39,43.06c-10.36,12.71-25.95,18.28-46.79,16.71
				l-12.78-0.98l1.97-25.56l12.78,0.79c11.93,0.92,20.19-1.44,24.77-7.08c4.45-5.5,6.69-14.48,6.69-26.94V969.13z M1142.56,946.52
				c-2.49-2.49-3.74-5.5-3.74-9.04c0-3.54,1.24-6.59,3.74-9.14c2.49-2.56,5.54-3.83,9.14-3.83c3.6,0,6.65,1.28,9.14,3.83
				c2.49,2.56,3.74,5.6,3.74,9.14c0,3.54-1.25,6.56-3.74,9.04c-2.49,2.49-5.54,3.74-9.14,3.74
				C1148.09,950.26,1145.04,949.01,1142.56,946.52z"/>
			<path class="st7" d="M1183.25,937.87v-12.98h58.2c16.12,0,29.89,5.7,41.29,17.11c11.4,11.4,17.11,25.1,17.11,41.09v25.76h-0.2
				c-1.18,14.29-6.82,26.48-16.91,36.57c-11.4,11.4-25.17,17.11-41.29,17.11h-58.2V937.87z M1264.35,1027.23
				c6.36-6.36,9.54-13.99,9.54-22.9v-21.23c0-8.91-3.18-16.55-9.54-22.9c-6.36-6.36-13.99-9.54-22.91-9.54h-32.44v86.12h32.44
				C1250.36,1036.77,1257.99,1033.59,1264.35,1027.23z"/>
			<path class="st7" d="M1363.35,1062.13h-8.45c-10.49,0-19.3-2.98-26.44-8.95c-7.15-5.96-12.29-13.86-15.43-23.69
				c-2.1-6.42-3.15-13.17-3.15-20.25c0-7.08,1.05-13.89,3.15-20.45c3.15-9.7,8.29-17.53,15.43-23.5c7.14-5.96,15.96-8.95,26.44-8.95
				h16.91c10.49,0,19.3,2.98,26.44,8.95c7.14,5.97,12.29,13.8,15.43,23.5c2.1,6.56,3.15,13.37,3.15,20.45
				c0,7.08-1.05,13.83-3.15,20.25c-3.15,9.83-8.29,17.73-15.43,23.69c-7.14,5.97-15.96,8.95-26.44,8.95H1363.35z M1337.59,1021.63
				c1.44,4.46,3.64,8.03,6.59,10.72c2.95,2.69,6.52,4.03,10.72,4.03h16.91c4.19,0,7.8-1.34,10.81-4.03
				c3.01-2.69,5.24-6.26,6.69-10.72c1.18-3.8,1.77-7.93,1.77-12.39c0-4.45-0.59-8.58-1.77-12.39c-1.44-4.45-3.67-8.03-6.69-10.72
				c-3.02-2.68-6.62-4.03-10.81-4.03h-16.91c-4.2,0-7.77,1.35-10.72,4.03c-2.95,2.69-5.15,6.26-6.59,10.72
				c-1.31,3.8-1.97,7.93-1.97,12.39C1335.62,1013.7,1336.28,1017.83,1337.59,1021.63z"/>
			<path class="st7" d="M1513.56,1036.37h12.98v25.76h-55.05c-10.49,0-19.3-2.98-26.44-8.95c-7.15-5.96-12.29-13.86-15.43-23.69
				c-2.1-6.42-3.15-13.17-3.15-20.25c0-7.08,1.05-13.89,3.15-20.45c3.15-9.7,8.29-17.53,15.43-23.5c7.14-5.96,15.96-8.95,26.44-8.95
				h55.05v25.76h-55.05c-4.2,0-7.77,1.35-10.72,4.03c-2.95,2.69-5.15,6.26-6.59,10.72c-1.31,3.8-1.97,7.93-1.97,12.39
				c0,4.46,0.65,8.59,1.97,12.39c1.44,4.46,3.64,8.03,6.59,10.72c2.95,2.69,6.52,4.03,10.72,4.03H1513.56z"/>
			<path class="st7" d="M1579.42,982.11h55.64v-25.75h-55.64c-9.83,0-18.26,1.9-25.26,5.7c-7.02,3.8-12.22,8.85-15.63,15.14
				c-2.75,5.11-4.13,10.42-4.13,15.92c0,5.5,1.38,10.81,4.13,15.92c3.28,6.03,8.2,10.95,14.75,14.75c6.55,3.8,14.48,5.83,23.79,6.1
				h12.78c5.9,0,10.49,1.63,13.77,4.91c3.66,3.67,5.5,8.52,5.5,14.55v12.78h25.75v-12.78c0-5.9-1.08-11.73-3.24-17.5
				c-2.17-5.76-5.41-10.81-9.73-15.13c-7.73-7.87-17.57-12.07-29.49-12.59h-12.97c-9.57,0-15.66-2.42-18.28-7.27
				c-0.66-1.18-0.99-2.42-0.99-3.73c0-1.32,0.33-2.55,0.99-3.74C1563.76,984.54,1569.85,982.11,1579.42,982.11z"/>
			<path class="st2" d="M1593.77,1051.03c0,3.08-1.07,5.7-3.24,7.86c-2.16,2.17-4.78,3.24-7.86,3.24c-3.09,0-5.71-1.07-7.87-3.24
				c-2.17-2.16-3.24-4.78-3.24-7.86c0-3.09,1.07-5.7,3.24-7.87c2.16-2.17,4.78-3.24,7.87-3.24c3.08,0,5.7,1.07,7.86,3.24
				C1592.69,1045.33,1593.77,1047.94,1593.77,1051.03z"/>
		</g>
	</g>
</g>
</svg>
